<svg width="42" height="18" viewBox="0 0 42 18" fill="none" xmlns="http://www.w3.org/2000/svg">
<path fill-rule="evenodd" clip-rule="evenodd" d="M8.30215 2.41343C7.83061 3.01298 7.07615 3.48587 6.32168 3.41831C6.22738 2.60765 6.59675 1.74632 7.02899 1.21433C7.50053 0.597886 8.32572 0.158778 8.99374 0.125C9.07233 0.969439 8.76583 1.79699 8.30215 2.41343ZM8.98581 3.57871C8.32114 3.5376 7.71466 3.79349 7.22479 4.00017C6.90954 4.13318 6.64259 4.24581 6.4395 4.24581C6.21158 4.24581 5.93361 4.12716 5.62151 3.99394C5.21255 3.81937 4.745 3.61979 4.2547 3.62937C3.13087 3.64626 2.08563 4.33026 1.51192 5.41958C0.333074 7.59823 1.20542 10.824 2.34497 12.5973C2.90296 13.4755 3.57097 14.4382 4.45118 14.4044C4.83841 14.3887 5.11697 14.2617 5.40525 14.1303C5.73714 13.9789 6.08191 13.8217 6.62025 13.8217C7.13993 13.8217 7.46963 13.9748 7.78612 14.1218C8.08705 14.2615 8.37604 14.3957 8.80505 14.3875C9.71669 14.3706 10.2904 13.5093 10.8484 12.6311C11.4505 11.6885 11.7152 10.7686 11.7553 10.629L11.76 10.6129C11.7591 10.6118 11.7516 10.6082 11.7385 10.6017C11.5372 10.5027 9.99865 9.7459 9.9839 7.71645C9.96908 6.01303 11.2042 5.14997 11.3987 5.01411C11.4105 5.00585 11.4185 5.00027 11.4221 4.99736C10.6362 3.74759 9.41019 3.61248 8.98581 3.57871ZM15.2966 14.2946V1.12985H19.8941C22.2675 1.12985 23.9258 2.88628 23.9258 5.45337C23.9258 8.02046 22.2361 9.79378 19.8313 9.79378H17.1985V14.2946H15.2966ZM17.1983 2.85259H19.391C21.0414 2.85259 21.9844 3.79836 21.9844 5.46191C21.9844 7.12545 21.0414 8.07966 19.3831 8.07966H17.1983V2.85259ZM30.2052 12.7155C29.7022 13.7457 28.5941 14.3959 27.3995 14.3959C25.6313 14.3959 24.3974 13.2644 24.3974 11.5586C24.3974 9.86975 25.592 8.89865 27.8003 8.75509L30.1738 8.60309V7.87688C30.1738 6.80444 29.5215 6.22178 28.3583 6.22178C27.3995 6.22178 26.7001 6.75377 26.5586 7.56444H24.8454C24.9004 5.85867 26.3936 4.61735 28.4133 4.61735C30.5903 4.61735 32.0049 5.84178 32.0049 7.74177V14.2946H30.2445V12.7155H30.2052ZM27.9103 12.8338C26.8965 12.8338 26.252 12.3103 26.252 11.5081C26.252 10.6805 26.8729 10.1992 28.0596 10.1232L30.1737 9.97962V10.7227C30.1737 11.9556 29.1991 12.8338 27.9103 12.8338ZM37.844 14.8098C37.0817 17.1151 36.2094 17.8751 34.3547 17.8751C34.2132 17.8751 33.7417 17.8582 33.6316 17.8244V16.2453C33.7495 16.2622 34.0403 16.2791 34.1896 16.2791C35.0305 16.2791 35.5021 15.8991 35.7929 14.9111L35.9657 14.3284L32.7436 4.74406H34.7319L36.9717 12.5213H37.011L39.2508 4.74406H41.1841L37.844 14.8098Z" fill="#121212"/>
</svg>
