<svg width="28" height="28" viewBox="0 0 28 28" fill="none" xmlns="http://www.w3.org/2000/svg">
<path fill-rule="evenodd" clip-rule="evenodd" d="M11.3073 6.99998C11.3073 6.82776 11.3944 6.46198 11.7483 6.1343C12.0901 5.81782 12.7516 5.47434 13.9996 5.47434C15.2476 5.47434 15.909 5.81782 16.2508 6.1343C16.6047 6.46198 16.6919 6.82776 16.6919 6.99998H18.3073C18.3073 6.39442 18.0444 5.59353 17.3483 4.94899C16.6401 4.29325 15.5516 3.85895 13.9996 3.85895C12.4476 3.85895 11.359 4.29325 10.6508 4.94899C9.95473 5.59353 9.69189 6.39442 9.69189 6.99998H11.3073ZM11.3073 7V8.8202H16.6919V7H18.3073V8.8202H21.0816C21.5277 8.8202 21.8893 9.18182 21.8893 9.62789V20.661C21.8893 21.2954 21.6352 21.9024 21.185 22.3489C20.7351 22.7953 20.1262 23.0449 19.4927 23.0449H8.36981C7.73628 23.0449 7.12739 22.7953 6.67743 22.3489C6.22725 21.9024 5.97314 21.2954 5.97314 20.661V9.62789C5.97314 9.18182 6.33476 8.8202 6.78084 8.8202H9.69189V7H11.3073ZM9.69189 12.8333V10.4356H7.58853V20.661C7.58853 20.8627 7.66924 21.0575 7.81504 21.2021C7.96107 21.3469 8.1605 21.4295 8.36981 21.4295H19.4927C19.702 21.4295 19.9014 21.3469 20.0474 21.2021C20.1932 21.0575 20.2739 20.8627 20.2739 20.661V10.4356H18.3073V12.8333H16.6919V10.4356H11.3073V12.8333H9.69189Z" fill="#121212"/>
</svg>
