<svg width="46" height="20" viewBox="0 0 46 20" fill="none" xmlns="http://www.w3.org/2000/svg">
<path fill-rule="evenodd" clip-rule="evenodd" d="M21.2203 15.3432V9.78687H24.0248C25.174 9.78687 26.1439 9.39311 26.9347 8.61654L27.1244 8.41966C28.5688 6.81182 28.4739 4.3071 26.9347 2.81958C26.165 2.03206 25.1107 1.6055 24.0248 1.62737H19.5229V15.3432H21.2203ZM21.2206 8.10235V3.31165H24.0676C24.6792 3.31165 25.2592 3.55228 25.6915 3.98978C26.6089 4.90855 26.63 6.43982 25.7442 7.3914C25.3119 7.86172 24.7003 8.12422 24.0676 8.10235H21.2206Z" fill="#3C4043"/>
<path fill-rule="evenodd" clip-rule="evenodd" d="M35.0423 6.69142C34.3148 6.00235 33.3238 5.65234 32.0691 5.65234C30.4561 5.65234 29.2436 6.26485 28.4424 7.47893L29.9395 8.45239C30.4877 7.62112 31.2362 7.20549 32.1851 7.20549C32.7861 7.20549 33.3659 7.43518 33.8193 7.85082C34.2621 8.24457 34.5151 8.81333 34.5151 9.4149V9.81959C33.8615 9.44771 33.0391 9.25084 32.027 9.25084C30.8462 9.25084 29.8973 9.53522 29.1909 10.1149C28.4845 10.6946 28.1261 11.4602 28.1261 12.4337C28.105 13.3196 28.474 14.1618 29.1276 14.7306C29.7919 15.3431 30.6353 15.6494 31.6263 15.6494C32.7966 15.6494 33.7244 15.1134 34.4308 14.0415H34.5046V15.3431H36.1282V9.55709C36.1282 8.34301 35.7697 7.3805 35.0423 6.69142ZM30.4353 13.615C30.0873 13.3525 29.8764 12.9259 29.8764 12.4666C29.8764 11.9525 30.1084 11.5259 30.5618 11.1868C31.0258 10.8478 31.6057 10.6728 32.2911 10.6728C33.2402 10.6618 33.9783 10.8806 34.5055 11.3181C34.5055 12.0619 34.2208 12.7072 33.662 13.2541C33.1558 13.7791 32.4704 14.0744 31.7534 14.0744C31.2789 14.0853 30.8149 13.9213 30.4353 13.615Z" fill="#3C4043"/>
<path d="M39.7761 19.4666L45.4483 5.95859H43.6032L40.978 12.6962H40.9464L38.2579 5.95859H36.4129L40.1346 14.7415L38.026 19.4666H39.7761Z" fill="#3C4043"/>
<path d="M15.3602 8.58377C15.3602 8.04782 15.318 7.51188 15.2337 6.98687H8.07499V10.0166H12.1762C12.0075 10.9901 11.4593 11.8651 10.658 12.412V14.3807H13.104C14.5379 13.0135 15.3602 10.9901 15.3602 8.58377Z" fill="#4285F4"/>
<path d="M8.07528 16.284C10.1206 16.284 11.8494 15.5839 13.104 14.3807L10.658 12.412C9.97274 12.8932 9.09796 13.1667 8.07528 13.1667C6.0932 13.1667 4.41686 11.7776 3.81591 9.91824H1.29612V11.9526C2.58237 14.6105 5.20758 16.284 8.07528 16.284Z" fill="#34A853"/>
<path d="M3.81591 9.91824C3.49956 8.94479 3.49986 7.88378 3.81621 6.8994V4.87593H1.29602C0.209919 7.09627 0.209919 9.72131 1.29602 11.9417L3.81591 9.91824Z" fill="#FBBC04"/>
<path d="M8.07528 3.65091C9.16121 3.62904 10.205 4.05561 10.9852 4.83218L13.157 2.57902C11.7759 1.24463 9.96248 0.511804 8.07528 0.533679C5.20758 0.533679 2.58227 2.21808 1.29602 4.87593L3.8159 6.91034C4.41686 5.04 6.0932 3.65091 8.07528 3.65091Z" fill="#EA4335"/>
</svg>
