<svg width="160" height="80" viewBox="0 0 160 80" fill="none" xmlns="http://www.w3.org/2000/svg">
<path d="M27.7402 36.0942H36.6927V29.1394H44.6524V49.0773H36.6927V41.1187H27.7402V49.0773H19.7749V29.1394H27.7402V36.0942Z" fill="#A7A7A7"/>
<path d="M65.1722 44.5768C67.7659 44.5768 69.2664 43.7716 69.2664 41.2014V29.1394H77.2317V41.5103C77.2317 47.8474 73.3606 49.7778 65.1722 49.7778C56.9838 49.7778 53.1127 47.8474 53.1127 41.5103V29.1394H61.078V41.2014C61.078 43.7716 62.5785 44.5768 65.1722 44.5768Z" fill="#A7A7A7"/>
<path d="M93.4217 35.4269L102.938 36.8167C106.948 37.4069 109.436 39.249 109.436 42.6244C109.436 47.4834 105.425 49.7723 96.4728 49.7723C90.3482 49.7723 83.6547 48.9339 83.6268 43.0711H93.2264C93.2543 43.7385 93.5053 44.1852 94.0743 44.4941C94.6655 44.7754 95.5357 44.9133 96.7796 44.9133C99.2617 44.9133 99.9422 44.2459 99.9422 43.2973C99.9422 42.7126 99.5741 42.1225 98.5031 41.957L89.4111 40.6168C85.5177 40.0267 83.9057 37.793 83.9057 35.0022C83.9057 29.8398 89.0207 28.4445 95.5692 28.4445C104.55 28.4445 108.248 30.7609 108.532 34.9801H99.2673C99.2673 34.1694 98.7876 33.662 98.0513 33.3862C97.3485 33.0829 96.4449 32.967 95.5692 32.967C93.193 32.967 92.3786 33.5517 92.3786 34.39C92.3786 34.9526 92.6296 35.3111 93.4217 35.4269Z" fill="#A7A7A7"/>
<path d="M125.11 36.0942H134.057V29.1394H142.022V49.0773H134.057V41.1187H125.11V49.0773H117.145V29.1394H125.11V36.0942Z" fill="#A7A7A7"/>
</svg>
