<svg width="30" height="31" viewBox="0 0 30 31" fill="none" xmlns="http://www.w3.org/2000/svg">
<path d="M26.3556 11.8057L26.3375 11.7876C26.3361 11.7866 26.3349 11.7853 26.3342 11.7837L15.0562 0.505493L3.77838 11.7834C3.77708 11.7847 3.77635 11.7865 3.77504 11.7874L3.75643 11.8054C2.0319 13.5396 0.936514 15.8005 0.644426 18.2288C0.352338 20.657 0.880304 23.1133 2.14439 25.207C3.40848 27.3008 5.33615 28.9119 7.62096 29.7842C9.90577 30.6565 12.4166 30.7401 14.7543 30.0214C14.951 29.9613 15.1613 29.9613 15.358 30.0214C17.6956 30.7398 20.2062 30.6562 22.4909 29.7838C24.7756 28.9114 26.703 27.3003 27.967 25.2067C29.2311 23.1131 29.7591 20.657 29.4671 18.2289C29.1751 15.8008 28.0799 13.5399 26.3556 11.8057ZM7.78863 19.2428C7.73373 19.2976 7.69019 19.3629 7.6605 19.4345C7.63079 19.5062 7.6155 19.5831 7.61552 19.6607C7.63558 21.6512 8.19812 23.5985 9.24259 25.2931C9.26631 25.3315 9.27728 25.3765 9.27391 25.4215C9.27055 25.4665 9.25303 25.5093 9.22385 25.5438C9.19468 25.5784 9.15534 25.6027 9.11148 25.6134C9.06762 25.6242 9.02147 25.6209 8.97965 25.6038C8.19445 25.2736 7.48114 24.7934 6.8796 24.1904C5.64685 22.9574 4.95381 21.2855 4.95269 19.542C4.95157 17.7985 5.64246 16.1257 6.87364 14.8912L15.0562 6.70939L23.2384 14.8912C24.4698 16.1256 25.1609 17.7983 25.1597 19.542C25.1587 21.2855 24.4655 22.9574 23.2327 24.1904C22.6311 24.7934 21.9179 25.2736 21.1328 25.6038C21.0909 25.6209 21.0447 25.6242 21.0009 25.6134C20.9571 25.6027 20.9177 25.5782 20.8885 25.5438C20.8594 25.5093 20.8417 25.4665 20.8384 25.4214C20.835 25.3764 20.846 25.3314 20.8697 25.2929C21.9144 23.5985 22.4772 21.6512 22.4976 19.6607C22.4976 19.5831 22.4822 19.5062 22.4523 19.4344C22.4225 19.3626 22.3788 19.2975 22.3237 19.2426L18.4535 15.1375C18.4149 15.1053 18.3664 15.0877 18.3162 15.0877C18.2661 15.0877 18.2175 15.1053 18.179 15.1375C18.1404 15.1695 18.1145 15.2142 18.1055 15.2636C18.0965 15.313 18.105 15.3638 18.1298 15.4075C19.6329 18.1276 18.3404 22.0346 16.1849 24.1904L16.1735 24.2018C15.876 24.4961 15.4744 24.6611 15.0559 24.6609C14.6374 24.6608 14.2359 24.4955 13.9386 24.2011L13.9281 24.1904C11.7718 22.0346 10.48 18.128 11.9833 15.4081C12.008 15.3644 12.0167 15.3136 12.0077 15.2642C11.9987 15.2148 11.9727 15.1701 11.9341 15.1381C11.8956 15.1059 11.8471 15.0883 11.7969 15.0883C11.7467 15.0883 11.6981 15.1059 11.6596 15.1381L7.78863 19.2428Z" fill="#121212"/>
</svg>
