<svg width="31" height="20" viewBox="0 0 31 20" fill="none" xmlns="http://www.w3.org/2000/svg">
<path d="M19.5433 2.52493H11.2239V17.4748H19.5433V2.52493Z" fill="#FF5F00"/>
<path d="M11.7521 9.99988C11.7508 8.5601 12.0771 7.13889 12.7063 5.84384C13.3354 4.54879 14.251 3.41385 15.3836 2.52494C13.981 1.42248 12.2965 0.736873 10.5226 0.546489C8.74877 0.356105 6.95713 0.668614 5.35249 1.44831C3.74785 2.22801 2.39496 3.44344 1.44845 4.95566C0.501935 6.46788 0 8.21588 0 9.99988C0 11.7839 0.501935 13.5319 1.44845 15.0441C2.39496 16.5563 3.74785 17.7717 5.35249 18.5514C6.95713 19.3311 8.74877 19.6437 10.5226 19.4533C12.2965 19.2629 13.981 18.5773 15.3836 17.4748C14.251 16.5859 13.3354 15.451 12.7063 14.1559C12.0771 12.8609 11.7508 11.4397 11.7521 9.99988Z" fill="#EB001B"/>
<path d="M30.7668 9.99988C30.7668 11.7838 30.2649 13.5318 29.3185 15.0441C28.372 16.5563 27.0192 17.7717 25.4146 18.5514C23.81 19.3311 22.0183 19.6437 20.2445 19.4533C18.4707 19.2629 16.7862 18.5773 15.3836 17.4748C16.5153 16.585 17.4301 15.4499 18.0592 14.155C18.6882 12.8602 19.0151 11.4394 19.0151 9.99988C19.0151 8.56032 18.6882 7.13956 18.0592 5.84471C17.4301 4.54987 16.5153 3.41475 15.3836 2.52494C16.7862 1.42247 18.4707 0.736868 20.2445 0.546486C22.0183 0.356104 23.81 0.668628 25.4146 1.44833C27.0192 2.22804 28.372 3.44347 29.3185 4.95569C30.2649 6.46791 30.7668 8.21591 30.7668 9.99988Z" fill="#F79E1B"/>
<path d="M29.8596 15.8914V15.5853H29.9831V15.523H29.6687V15.5853H29.7922V15.8914H29.8596ZM30.4699 15.8914V15.5224H30.3735L30.2627 15.7762L30.1519 15.5224H30.0555V15.8914H30.1235V15.613L30.2274 15.853H30.298L30.4019 15.6124V15.8914H30.4699Z" fill="#F79E1B"/>
</svg>
