<svg width="63" height="18" viewBox="0 0 63 18" fill="none" xmlns="http://www.w3.org/2000/svg">
<path d="M8.61373 5.1553C8.38758 6.85141 7.03069 6.85141 5.78687 6.85141H5.10842L5.67379 3.57226C5.67379 3.34611 5.89993 3.23303 6.12608 3.23303H6.46533C7.36992 3.23303 8.16143 3.23304 8.61373 3.68533C8.61373 4.13763 8.61373 4.58993 8.61373 5.1553ZM8.04836 0.632324H3.18616C2.84694 0.632324 2.6208 0.858473 2.50773 1.1977L0.585449 13.6359C0.585449 13.862 0.698534 14.0882 1.03776 14.0882H3.29924C3.63847 14.0882 3.8646 13.862 3.97768 13.5228L4.54305 10.1306C4.54305 9.79135 4.88228 9.5652 5.2215 9.5652H6.80454C9.97062 9.5652 11.7798 7.98216 12.3452 4.92915C12.5713 3.57226 12.3452 2.55459 11.7798 1.76307C10.8752 1.08462 9.6314 0.632324 8.04836 0.632324Z" fill="#263577"/>
<path d="M19.2422 9.67832C19.016 11.0352 17.9984 11.9398 16.6415 11.9398C15.963 11.9398 15.3977 11.7137 15.0585 11.2614C14.7192 10.8091 14.6061 10.2437 14.7192 9.67832C14.9454 8.32143 15.9631 7.41684 17.3199 7.41684C17.9984 7.41684 18.5638 7.64298 18.903 8.09528C19.1291 8.4345 19.3553 8.99988 19.2422 9.67832ZM22.4083 5.15535H20.1468C19.9207 5.15535 19.8076 5.26842 19.6945 5.49457L19.5814 6.17302L19.4684 5.94687C19.0161 5.26842 17.8853 4.9292 16.7546 4.9292C14.1539 4.9292 12.0055 6.85147 11.5532 9.56525C11.327 10.9221 11.6662 12.166 12.4577 13.0706C13.1362 13.8621 14.1539 14.2013 15.3977 14.2013C17.433 14.2013 18.5637 12.8444 18.5637 12.8444L18.4507 13.5229C18.4507 13.749 18.5638 13.9752 18.903 13.9752H20.9383C21.2775 13.9752 21.5037 13.749 21.6168 13.4098L22.8606 5.49457C22.8606 5.3815 22.7475 5.15535 22.4083 5.15535Z" fill="#263577"/>
<path d="M34.735 5.15527H32.3605C32.1343 5.15527 31.9082 5.26835 31.7951 5.4945L28.629 10.2436L27.2721 5.72065C27.159 5.38142 26.9329 5.26835 26.5937 5.26835H24.3322C24.106 5.26835 23.8799 5.49449 23.993 5.83372L26.5937 13.2966L24.2191 16.6889C23.9929 16.915 24.2191 17.3673 24.5583 17.3673H26.9329C27.1591 17.3673 27.3852 17.2542 27.4983 17.0281L35.1873 5.83372C35.3004 5.49449 35.0743 5.15527 34.735 5.15527Z" fill="#263577"/>
<path d="M42.9897 5.1553C42.7636 6.85141 41.4067 6.85141 40.1629 6.85141H39.4844L40.0498 3.57226C40.0498 3.34611 40.2759 3.23303 40.5021 3.23303H40.8413C41.7459 3.23303 42.5374 3.23304 42.9897 3.68533C43.1028 4.13763 43.1028 4.58993 42.9897 5.1553ZM42.4243 0.632324H37.5622C37.2229 0.632324 36.9968 0.858473 36.8837 1.1977L34.9614 13.6359C34.9614 13.862 35.0745 14.0882 35.4138 14.0882H37.9014C38.1275 14.0882 38.3537 13.9751 38.3537 13.6359L38.919 10.1306C38.919 9.79135 39.2583 9.5652 39.5975 9.5652H41.1805C44.3466 9.5652 46.1558 7.98216 46.7212 4.92915C46.9473 3.57226 46.7212 2.55459 46.1558 1.76307C45.3643 1.08462 44.1205 0.632324 42.4243 0.632324Z" fill="#2199D6"/>
<path d="M53.7319 9.67832C53.5058 11.0352 52.4881 11.9398 51.1312 11.9398C50.4528 11.9398 49.8874 11.7137 49.5482 11.2614C49.209 10.8091 49.0959 10.2437 49.209 9.67832C49.4351 8.32143 50.4528 7.41684 51.8097 7.41684C52.4881 7.41684 53.0535 7.64298 53.3927 8.09528C53.6189 8.4345 53.845 8.99988 53.7319 9.67832ZM56.898 5.15535H54.6365C54.4104 5.15535 54.2973 5.26842 54.1842 5.49457L54.0712 6.17302L53.9581 5.94687C53.5058 5.26842 52.3751 4.9292 51.2443 4.9292C48.6436 4.9292 46.4952 6.85147 46.0429 9.56525C45.8168 10.9221 46.156 12.166 46.9475 13.0706C47.6259 13.8621 48.6436 14.2013 49.8874 14.2013C51.9228 14.2013 53.0535 12.8444 53.0535 12.8444L52.9404 13.5229C52.9404 13.749 53.0535 13.9752 53.3927 13.9752H55.428C55.7673 13.9752 55.9934 13.749 56.1065 13.4098L57.3503 5.49457C57.3503 5.3815 57.1242 5.15535 56.898 5.15535Z" fill="#2199D6"/>
<path d="M59.6106 0.971546L57.5752 13.6359C57.5752 13.862 57.6883 14.0882 58.0275 14.0882H60.0628C60.4021 14.0882 60.6282 13.862 60.7413 13.5228L62.6635 1.08462C62.6635 0.858475 62.5505 0.632324 62.2112 0.632324H59.9498C59.8367 0.632324 59.7236 0.858472 59.6106 0.971546Z" fill="#2199D6"/>
</svg>
