<svg width="28" height="28" viewBox="0 0 28 28" fill="none" xmlns="http://www.w3.org/2000/svg">
<path fill-rule="evenodd" clip-rule="evenodd" d="M9.65715 9.33351C9.65715 7.20226 11.3849 5.47453 13.5161 5.47453C15.6474 5.47453 17.3751 7.20226 17.3751 9.33351C17.3751 11.4648 15.6474 13.1925 13.5161 13.1925C11.3849 13.1925 9.65715 11.4648 9.65715 9.33351ZM13.5161 3.85915C10.4927 3.85915 8.04177 6.3101 8.04177 9.33351C8.04177 12.3569 10.4927 14.8079 13.5161 14.8079C16.5395 14.8079 18.9905 12.3569 18.9905 9.33351C18.9905 6.3101 16.5395 3.85915 13.5161 3.85915ZM8.45268 19.3165C9.17638 18.5928 10.1579 18.1862 11.1814 18.1862H15.8481C16.8715 18.1862 17.8531 18.5928 18.5768 19.3165C19.3005 20.0402 19.707 21.0217 19.707 22.0452V24.3785C19.707 24.8246 20.0686 25.1862 20.5147 25.1862C20.9608 25.1862 21.3224 24.8246 21.3224 24.3785V22.0452C21.3224 20.5933 20.7457 19.2009 19.719 18.1742C18.6924 17.1476 17.2999 16.5708 15.8481 16.5708H11.1814C9.7295 16.5708 8.33707 17.1476 7.31043 18.1742C6.28379 19.2009 5.70703 20.5933 5.70703 22.0452V24.3785C5.70703 24.8246 6.06865 25.1862 6.51472 25.1862C6.9608 25.1862 7.32242 24.8246 7.32242 24.3785V22.0452C7.32242 21.0217 7.72899 20.0402 8.45268 19.3165Z" fill="#121212"/>
</svg>
