<svg width="160" height="80" viewBox="0 0 160 80" fill="none" xmlns="http://www.w3.org/2000/svg">
<path d="M63.9611 51.6191C63.1871 51.6002 62.5302 50.9736 62.5302 50.199L62.5317 24.8889H54.0812V52.7877C54.0812 54.1557 55.2032 55.2708 56.5814 55.2708H71.3516C72.7374 55.2708 73.8464 54.155 73.8464 52.7877V24.8889H65.4028L65.3959 50.199C65.3967 50.9736 64.7382 51.6002 63.9611 51.6191ZM92.2525 24.8889H79.4648C79.1032 24.8895 78.7453 24.9605 78.4115 25.0977C78.0777 25.235 77.7746 25.4358 77.5195 25.6888C77.2644 25.9418 77.0623 26.242 76.9249 26.5721C76.7874 26.9022 76.7172 27.2559 76.7183 27.6128V55.2708H85.1772V29.9019C85.1782 29.7177 85.216 29.5355 85.2884 29.3657C85.3608 29.1959 85.4664 29.0419 85.5992 28.9125C85.7319 28.783 85.8893 28.6807 86.0621 28.6113C86.235 28.5419 86.42 28.5069 86.6066 28.5082C87.3959 28.5082 88.0292 29.1091 88.0476 29.88V55.2716H96.4697V29.8792C96.482 29.1084 97.1137 28.5074 97.9023 28.5074C98.6831 28.5074 99.3286 29.1235 99.3348 29.9011V55.2708H107.794V27.6128C107.795 27.2558 107.725 26.9021 107.587 26.5719C107.449 26.2418 107.247 25.9417 106.992 25.6887C106.737 25.4357 106.433 25.2349 106.099 25.0977C105.765 24.9605 105.407 24.8895 105.046 24.8889H92.2525ZM48.4445 47.6366H39.9076V55.2708H31.4609V24.8889H48.498C50.0231 24.8889 51.2139 26.1127 51.2139 27.6249V44.8969C51.215 45.2565 51.1442 45.6127 51.0055 45.9452C50.8668 46.2777 50.6629 46.5799 50.4056 46.8345C50.1483 47.089 49.8426 47.2909 49.5061 47.4286C49.1695 47.5662 48.8088 47.6369 48.4445 47.6366ZM42.7734 29.9539C42.776 29.7662 42.7411 29.5799 42.6706 29.4055C42.6002 29.2312 42.4955 29.0723 42.3627 28.9379C42.23 28.8035 42.0716 28.6963 41.8968 28.6225C41.722 28.5486 41.5341 28.5095 41.3439 28.5074H39.9076V43.8747H41.3439C42.0881 43.8747 42.7803 43.2903 42.7734 42.447V29.9539Z" fill="#A7A7A7"/>
<path d="M120.601 55.4009V47.7876H117.675V55.4009H109.078V27.7967C109.078 26.2897 110.332 25.0781 111.876 25.0781H126.401C126.769 25.0784 127.134 25.149 127.474 25.2859C127.815 25.4227 128.124 25.6231 128.384 25.8756C128.644 26.1282 128.85 26.4278 128.99 26.7575C129.13 27.0871 129.202 27.4403 129.201 27.7967V55.4009H120.601ZM120.601 44.0329V30.07C120.58 29.2984 119.936 28.7047 119.134 28.7047C118.751 28.704 118.383 28.8492 118.11 29.1088C117.837 29.3684 117.681 29.7216 117.675 30.0919V44.0329H120.601Z" fill="#A7A7A7"/>
</svg>
