<svg width="28" height="28" viewBox="0 0 28 28" fill="none" xmlns="http://www.w3.org/2000/svg">
<path fill-rule="evenodd" clip-rule="evenodd" d="M5.72574 11.9146C5.72574 8.56374 8.44211 5.84737 11.7929 5.84737C15.1437 5.84737 17.8601 8.56374 17.8601 11.9146C17.8601 15.2654 15.1437 17.9817 11.7929 17.9817C8.44211 17.9817 5.72574 15.2654 5.72574 11.9146ZM11.7929 4.23199C7.54996 4.23199 4.11035 7.67159 4.11035 11.9146C4.11035 16.1575 7.54996 19.5971 11.7929 19.5971C13.6237 19.5971 15.3049 18.9568 16.6247 17.8878L22.0259 23.289C22.3413 23.6044 22.8527 23.6044 23.1681 23.289C23.4836 22.9736 23.4836 22.4622 23.1681 22.1467L17.7669 16.7455C18.8354 15.4258 19.4755 13.7449 19.4755 11.9146C19.4755 7.67159 16.0359 4.23199 11.7929 4.23199Z" fill="#121212"/>
</svg>
