<svg width="160" height="80" viewBox="0 0 160 80" fill="none" xmlns="http://www.w3.org/2000/svg">
<path fill-rule="evenodd" clip-rule="evenodd" d="M120.672 21.5943C119.905 20.8274 118.836 20.4442 117.851 20.4442H42.4423C41.4696 20.4442 40.4013 20.8686 39.6618 21.5943L24.5277 36.7947C22.9667 38.3423 22.9942 40.8626 24.5552 42.4096L39.703 57.5149C40.4288 58.2412 41.4696 58.6651 42.4423 58.6651H117.878C118.836 58.6926 119.905 58.3094 120.672 57.5424L135.819 42.3827C137.339 40.8626 137.339 38.3154 135.819 36.7953L120.672 21.5943ZM119.603 55.3779C118.918 56.0629 118.014 56.3923 117.11 56.3923V56.3929H42.9487C42.0992 56.3642 41.1677 56.0085 40.5107 55.351L27.1575 42.0127C25.8022 40.6569 25.7747 38.4523 27.1306 37.0966L40.4838 23.7308C41.1408 23.0876 42.0723 22.7176 42.9493 22.7176H117.11C117.987 22.7451 118.918 23.087 119.603 23.7583L132.956 37.1241C133.607 37.7764 133.973 38.6604 133.973 39.5821C133.973 40.5039 133.607 41.3879 132.956 42.0402L119.603 55.3779ZM58.0515 44.5042C59.6752 47.4924 57.7102 50.8382 54.19 50.8382V50.8376H43.5877C43.0147 50.8094 42.7419 50.5203 42.7145 49.9559V47.1474C42.7155 47.0189 42.7418 46.8918 42.7919 46.7735C42.8419 46.6553 42.9147 46.5483 43.0061 46.4586C43.0975 46.369 43.2056 46.2986 43.3241 46.2515C43.4427 46.2043 43.5693 46.1814 43.6967 46.184H50.3964C50.9009 46.184 51.0379 45.7844 50.8467 45.4953C50.119 44.5718 49.1282 43.4552 48.0547 42.2453C45.8474 39.7576 43.2902 36.8755 41.9497 34.4668C40.8585 32.5117 41.7585 28.271 45.2656 28.271H55.4313C55.9638 28.271 56.3593 28.7254 56.3867 29.235V32.0303C56.3867 32.6223 56.1413 32.8699 55.5135 32.8976H49.578C48.9228 32.8976 48.8406 33.3934 49.0729 33.641C50.017 34.7841 51.118 36.0004 52.2346 37.2337C54.5071 39.744 56.8437 42.3252 58.0515 44.5042ZM65.8977 41.4481V49.9019C65.8977 50.4115 65.4194 50.8382 64.9977 50.8382H60.9177C60.4942 50.8382 60.0439 50.4115 60.0165 49.9295L59.9897 29.2356C59.9897 28.6989 60.3441 28.2722 60.9993 28.2446H64.8744C65.4474 28.2446 65.8977 28.6983 65.8977 29.2356V36.2848H70.5097V29.2356C70.5097 28.8089 70.851 28.2722 71.5467 28.2446H75.4362C76.0771 28.2446 76.4184 28.6983 76.4184 29.2356L76.4458 49.9019C76.4458 50.4662 75.9955 50.8382 75.4904 50.8382H71.4103C71.0416 50.8382 70.4823 50.3839 70.4823 49.9019V41.4481H65.8977ZM111.364 50.8382H98.6051C98.1274 50.8106 97.6503 50.3009 97.6229 49.9019V29.2356C97.6229 28.7813 98.1274 28.2987 98.6325 28.2716H111.336C111.95 28.2716 112.264 28.616 112.264 29.208V32.0309C112.291 32.5406 111.841 32.8982 111.418 32.8982H103.763V36.8492H108.798C109.303 36.9039 109.726 37.3035 109.698 37.7303V40.5941C109.726 41.0214 109.358 41.5028 108.852 41.4751H103.763V46.1564H111.391C111.922 46.1564 112.318 46.5561 112.318 47.1204V49.9019C112.318 50.59 111.922 50.8106 111.364 50.8382ZM118.732 50.8106H114.966C114.515 50.8106 114.065 50.4662 114.038 49.9295V29.208C114.038 28.616 114.378 28.2987 114.993 28.2716H118.677C119.209 28.2716 119.578 28.6983 119.605 29.208V49.9295C119.605 50.4939 119.237 50.8106 118.732 50.8106ZM78.7789 31.4798C78.5335 36.8511 78.5335 42.2311 78.7789 47.6024C78.7789 49.0208 80.3341 50.8659 81.9852 50.8659H92.0014C93.7072 50.8659 95.1266 49.1584 95.1266 47.6024C95.3994 42.1086 95.3994 36.7392 95.1266 31.4521C95.0855 30.0614 93.4338 28.2716 92.0014 28.2716H82.0126C80.2668 28.3269 78.8337 30.172 78.7789 31.4798ZM88.5354 46.4052C87.4573 46.4599 86.4197 46.4599 85.4101 46.4052C85.042 46.377 84.6739 46.0332 84.6465 45.3312C84.4279 41.4757 84.3326 37.6209 84.6465 33.7522C84.7013 33.0773 84.9878 32.7329 85.4101 32.6776C86.4203 32.5676 87.4847 32.5676 88.5354 32.6499C88.8767 32.6499 89.1495 33.1043 89.1763 33.7516C89.4354 37.6203 89.4354 41.4481 89.1763 45.3306C89.1495 45.8955 88.9857 46.3776 88.5354 46.4052Z" fill="#A7A7A7"/>
</svg>
