<svg width="160" height="80" viewBox="0 0 160 80" fill="none" xmlns="http://www.w3.org/2000/svg">
<path d="M101.665 31.8193H106.424V32.7417C109.288 31.5713 112.071 31.0107 114.326 33.5502C115.61 33.0067 116.779 32.2966 118.047 32.001C121.735 31.1262 124.302 33.36 123.843 37.1259C123.383 40.8919 122.655 44.6426 122.047 48.4171H117.224C117.487 46.7354 117.733 45.1046 118.014 43.4722C118.31 41.6597 118.624 39.8455 118.92 38.0364C118.918 38.0084 118.923 37.9802 118.936 37.9549C119.117 36.5858 118.656 35.5479 117.734 35.2846C116.73 35.0043 115.48 35.5649 115.035 36.7998C114.59 38.0347 114.424 39.3478 114.187 40.6405C113.774 43.0645 113.413 45.5191 112.984 47.9448C112.942 48.065 112.873 48.1738 112.781 48.2623C112.69 48.3508 112.579 48.4166 112.458 48.4544C111.041 48.5037 109.609 48.4697 108.094 48.4697C108.391 46.591 108.688 44.7615 108.983 42.932C109.263 41.1688 109.577 39.4209 109.831 37.6661C109.979 36.7098 109.551 35.7704 108.827 35.4086C108.102 35.0468 107.164 35.2761 106.439 35.9844C105.518 36.8915 105.469 38.0942 105.27 39.2476C104.761 42.3052 104.283 45.3628 103.772 48.4459H98.9655C99.8716 42.8794 100.761 37.3909 101.665 31.8193ZM58.2685 46.7524C57.7594 49.917 57.264 52.9339 56.7533 56H51.9296C53.2462 47.9228 54.5476 39.8965 55.8642 31.8363H60.6879C60.6387 32.2473 60.5726 32.6261 60.5403 32.9557C61.5278 32.5769 62.4831 32.0503 63.5028 31.8363C66.9607 31.0939 69.8247 32.9064 70.7986 36.3191C72.1967 41.213 68.7371 47.0649 63.7505 48.1776C61.7416 48.5988 59.9312 48.186 58.2685 46.7524ZM65.9392 39.6315C65.9562 37.763 65.2487 36.5331 64.0729 36.0881C62.8971 35.643 61.538 36.1373 60.5335 37.357C60.0656 37.9117 59.7149 38.5557 59.5026 39.25C59.2903 39.9443 59.2208 40.6745 59.2983 41.3964C59.4137 42.6161 59.9244 43.637 61.1647 44.0651C62.3524 44.4778 63.3704 44.0328 64.2442 43.2259C65.258 42.2966 65.8667 41.0058 65.9392 39.6315ZM19.7754 44.3453C20.8782 43.423 21.9489 42.5328 23.0195 41.6274C23.4963 42.1727 23.9086 42.7316 24.4023 43.1936C25.59 44.3317 26.9864 44.347 28.4744 43.8374C29.9064 43.3431 30.8277 42.3868 31.0907 40.8528C31.2604 39.815 30.96 38.9418 30.054 38.3643C29.4127 37.9532 28.7204 37.622 28.0451 37.2601C27.6345 37.0461 27.2069 36.8474 26.7946 36.6503C20.9936 33.8135 21.9489 27.4537 26.1312 24.5167C28.9138 22.5717 31.7948 22.818 34.6928 24.2041C35.3172 24.5014 35.8941 24.9124 36.5592 25.3082C35.6209 26.4786 34.7488 27.5658 33.8919 28.6207C33.1182 28.2809 32.3938 27.88 31.6201 27.649C29.7927 27.0885 28.1469 27.8461 27.307 29.5617C26.7471 30.7151 26.9932 31.753 28.096 32.3968C29.1989 33.0406 30.3357 33.5332 31.4385 34.1261C33.4966 35.2319 35.0016 36.7964 35.324 39.2221C35.833 42.9473 33.9666 46.1765 30.5172 47.7155C26.4265 49.5059 22.2475 48.2353 19.7754 44.3453ZM39.0058 31.8193H43.8465C43.2696 35.3457 42.7267 38.8416 42.1498 42.3188C41.919 43.7202 42.3195 44.2638 43.7141 44.3793C45.4584 44.5271 46.2592 43.8697 46.529 42.171C47.0719 38.7414 47.6488 35.3135 48.2257 31.8193H53.0494C52.7202 33.912 52.3911 35.9725 52.045 38.05C51.8142 39.4837 51.5665 40.9174 51.3205 42.3511C50.7775 45.565 48.6363 47.7257 45.4431 48.2523C43.631 48.5496 41.8376 48.5649 40.0917 47.9126C37.9674 47.1057 36.8493 45.1114 37.2277 42.8522C37.8198 39.2204 38.3967 35.5615 39.0058 31.8193ZM98.538 40.8359H88.1881C88.0574 42.5498 88.8803 44.2638 90.1155 44.6596C92.1736 45.3391 93.2426 43.9512 94.247 42.4666C95.3838 42.8964 96.5036 43.3159 97.6217 43.7355C96.2389 46.6708 92.1075 49.5875 87.9913 48.22C85.0933 47.2637 83.7105 45.0061 83.4305 42.0708C82.9894 37.5387 86.3539 32.9404 90.7501 31.9518C94.5694 31.1024 97.9288 33.3107 98.504 37.2177C98.6686 38.3626 98.538 39.5822 98.538 40.8359ZM88.6258 37.8683H94.5863C94.0926 35.9997 93.1204 35.0162 91.8716 35.0009C90.5041 34.9839 89.1705 36.1543 88.6258 37.8683ZM135.828 42.4666C136.963 42.8964 138.066 43.3159 139.171 43.7202C137.211 47.741 131.449 50.2805 127.546 47.1312C125.307 45.3187 124.633 42.8454 125.078 40.1105C125.687 36.2358 127.826 33.4347 131.596 32.1488C135.926 30.6659 139.91 33.4177 140.19 38.0008C140.256 38.9231 140.207 39.8455 140.207 40.8359H129.752C129.572 42.4513 130.444 44.1483 131.663 44.6596C132.979 45.2354 134.116 44.6596 135.828 42.4666ZM136.059 37.9175C135.976 36.3887 134.774 35.0298 133.473 34.9839C132.058 34.9347 130.395 36.4346 130.249 37.9175H136.059ZM84.0498 31.8023C83.6223 33.253 83.2269 34.5881 82.8146 35.9895C82.6377 35.9656 82.4622 35.9328 82.2887 35.891C79.9998 35.181 78.0248 36.3513 77.5956 38.7414C77.0696 41.6597 76.6251 44.5764 76.1466 47.4947C76.0974 47.7903 76.0312 48.0875 75.9769 48.4171H71.1753C72.0813 42.8624 72.9704 37.357 73.8747 31.8193H78.6492C78.634 32.1981 78.6 32.5616 78.5678 32.9897C80.2306 31.736 82.0579 31.5713 84.0498 31.8023Z" fill="#A7A7A7"/>
</svg>
