<svg width="39" height="14" viewBox="0 0 39 14" fill="none" xmlns="http://www.w3.org/2000/svg">
<path fill-rule="evenodd" clip-rule="evenodd" d="M9.73368 13.1253H6.45655L3.99911 3.47426C3.88247 3.03031 3.6348 2.63784 3.2705 2.45286C2.36134 1.988 1.35951 1.61805 0.266602 1.43146V1.0599H5.54579C6.2744 1.0599 6.82085 1.61805 6.91193 2.26627L8.18699 9.22789L11.4625 1.0599H14.6486L9.73368 13.1253ZM16.47 13.1253H13.375L15.9236 1.05989H19.0185L16.47 13.1253ZM23.0243 4.40053C23.1154 3.7507 23.6618 3.37913 24.2993 3.37913C25.3012 3.28584 26.3925 3.47242 27.3032 3.93567L27.8497 1.33794C26.9389 0.966372 25.9371 0.779785 25.0279 0.779785C22.024 0.779785 19.8382 2.45102 19.8382 4.77049C19.8382 6.53502 21.3865 7.46152 22.4794 8.01967C23.6618 8.57621 24.1172 8.94778 24.0261 9.50432C24.0261 10.3391 23.1154 10.7107 22.2062 10.7107C21.1133 10.7107 20.0204 10.4324 19.0201 9.96757L18.4737 12.5669C19.5666 13.0302 20.749 13.2168 21.8419 13.2168C25.2101 13.3084 27.3032 11.6388 27.3032 9.13276C27.3032 5.97687 23.0243 5.79189 23.0243 4.40053ZM38.1322 13.1253L35.6747 1.05989H33.0351C32.4887 1.05989 31.9422 1.43145 31.7601 1.988L27.2095 13.1253H30.3955L31.0315 11.3624H34.9461L35.3104 13.1253H38.1322ZM33.4913 4.30787L34.4005 8.85512H31.852L33.4913 4.30787Z" fill="#172B85"/>
</svg>
